<svg width="1000" height="211" viewBox="0 0 1000 211" fill="none" xmlns="http://www.w3.org/2000/svg">
<path d="M991.34 172.379H962.721L950.726 144.153H887.917L875.922 172.379H847.303L903.785 39.6724H934.859L991.34 172.379ZM897.551 120.647H941.092L919.652 70.5817H918.802L897.551 120.647Z" fill="#BC512F"/>
<path d="M778.967 172.379V63.7335H726.925V39.6724H857.833V63.7335H805.791V172.379H778.967Z" fill="#BC512F"/>
<path d="M737.936 172.379H709.318L697.322 144.153H634.513L622.518 172.379H593.899L650.381 39.6724H681.455L737.936 172.379ZM644.147 120.647H687.689L666.248 70.5817H665.398L644.147 120.647Z" fill="#BC512F"/>
<path d="M553.837 172.379L525.785 125.367H487.155V172.379H460.237V39.6724H537.592C546.722 39.6724 554.844 41.3382 561.96 44.6697C569.075 47.9396 574.711 52.8443 578.866 59.384C583.085 65.9237 585.195 73.6356 585.195 82.5197C585.195 92.8227 582.393 101.46 576.788 108.432C571.247 115.403 563.723 120.215 554.215 122.868L583.872 172.379H553.837ZM487.155 101.676H537.592C544.014 101.676 549.052 99.9794 552.704 96.5862C556.419 93.1312 558.276 88.4424 558.276 82.5197C558.276 76.5969 556.419 71.939 552.704 68.5457C549.052 65.0908 544.014 63.3633 537.592 63.3633H487.155V101.676Z" fill="#BC512F"/>
<path d="M366.658 172.379V63.7335H314.616V39.6724H445.524V63.7335H393.482V172.379H366.658Z" fill="#BC512F"/>
<path d="M250.515 174.869C243.022 174.869 236.159 174.406 229.925 173.481C223.692 172.617 217.71 171.105 211.98 168.946C206.313 166.725 201.464 163.887 197.434 160.432C193.404 156.977 190.067 152.597 187.423 147.291C184.778 141.924 183.141 135.754 182.511 128.782H210.28C211.161 133.225 212.767 136.988 215.097 140.073C217.489 143.157 220.512 145.564 224.164 147.291C227.816 149.018 231.751 150.252 235.97 150.993C240.252 151.733 245.1 152.103 250.515 152.103C271.42 152.103 281.873 146.612 281.873 135.631C281.873 132.546 280.991 129.893 279.228 127.672C277.465 125.451 275.072 123.754 272.05 122.582C269.028 121.41 265.502 120.361 261.472 119.436C257.442 118.51 253.16 117.832 248.626 117.4C244.093 116.906 239.402 116.258 234.553 115.456C229.768 114.593 225.108 113.698 220.575 112.773C216.041 111.785 211.759 110.305 207.729 108.331C203.7 106.356 200.173 104.043 197.151 101.39C194.129 98.7369 191.736 95.2512 189.973 90.9325C188.21 86.6139 187.328 81.6782 187.328 76.1257C187.328 70.6965 188.21 65.8226 189.973 61.504C191.736 57.1853 194.16 53.6687 197.245 50.9541C200.394 48.1778 203.794 45.8642 207.446 44.0134C211.098 42.1008 215.191 40.6819 219.725 39.7564C224.258 38.831 228.414 38.1832 232.192 37.813C235.97 37.4429 239.906 37.2578 243.998 37.2578C250.799 37.2578 257.064 37.7513 262.794 38.7385C268.587 39.6639 273.971 41.1754 278.945 43.2731C283.919 45.3707 288.233 48.0544 291.885 51.3243C295.537 54.5324 298.528 58.5117 300.857 63.2623C303.187 67.9511 304.667 73.2877 305.297 79.2721H277.245C276.237 72.7942 272.711 67.9819 266.666 64.8355C260.685 61.6273 253.129 60.0233 243.998 60.0233C240.031 60.0233 236.316 60.3317 232.853 60.9487C229.453 61.504 226.305 62.3985 223.408 63.6324C220.575 64.8046 218.308 66.4704 216.608 68.6297C214.971 70.7274 214.152 73.226 214.152 76.1257C214.152 79.3338 215.223 82.0176 217.363 84.1769C219.567 86.2745 222.495 87.9095 226.147 89.0817C229.799 90.2539 233.987 91.241 238.709 92.043C243.432 92.7834 248.406 93.5237 253.632 94.2641C258.859 95.0044 264.085 95.8681 269.311 96.8552C274.537 97.8424 279.512 99.2922 284.234 101.205C288.957 103.117 293.144 105.462 296.796 108.238C300.448 111.014 303.345 114.747 305.485 119.436C307.689 124.063 308.791 129.461 308.791 135.631C308.791 161.789 289.366 174.869 250.515 174.869Z" fill="#BC512F"/>
<path fill-rule="evenodd" clip-rule="evenodd" d="M8.99268 62.1884L129.901 10.7914V69.5162L35.2342 81.8565L69.4529 105.038L69.4914 82.5031L129.913 112.624V145.997L129.901 145.989V147.874L8.99268 199.284V140.559L103.668 128.218L69.453 105.039L69.4144 127.574L8.99268 97.4529V85.2773V64.0795V62.1884Z" fill="#BC512F"/>
</svg>
